<svg xmlns="http://www.w3.org/2000/svg" viewBox="0 0 251.21 79.77"><defs><style>.cls-1{fill:#f6ba18;}.cls-2{fill:#f26427;}.cls-3{fill:#231f20;}</style></defs><title>자산 3</title><g id="레이어_2" data-name="레이어 2"><g id="레이어_1-2" data-name="레이어 1"><path class="cls-1" d="M17,72.54A39.88,39.88,0,0,1,62.79,7.24"/><path class="cls-2" d="M62.79,7.24A39.88,39.88,0,1,1,17,72.54"/><path class="cls-3" d="M100,22.11q4.55-5.73,10.39-5.73a7.43,7.43,0,0,1,6.1,2.58,9.89,9.89,0,0,1,2.11,6.47V62a2.12,2.12,0,0,0,1,1.87q.88.53.88,2.75a4.33,4.33,0,0,1-.29,2.1,1.56,1.56,0,0,1-1.2.34H108.2A6.35,6.35,0,0,1,105.91,64V27.68q0-3-2.44-3A5.43,5.43,0,0,0,100,26.39V62a2.36,2.36,0,0,0,1.34,2.14,1.77,1.77,0,0,1,.8,1.68v1.95q0,1.3-1.87,1.3H86.7a1.84,1.84,0,0,1-1.26-.29,2.4,2.4,0,0,1-.27-1.43V66a1.74,1.74,0,0,1,.69-1.57A3.48,3.48,0,0,0,87,63.17a7.34,7.34,0,0,0,.27-2.52V23.29A2,2,0,0,0,86,21.34a1.24,1.24,0,0,1-.73-1.22v-2q0-1.18,1.07-1.18H98.81c.54,0,.87.08,1,.23a1.62,1.62,0,0,1,.19,1Z"/><path class="cls-3" d="M140.56,16.38q7.18,0,12,6.44t4.81,19.12q0,13.67-4.89,20.68t-12.18,7a12.93,12.93,0,0,1-8.75-3.21,20.62,20.62,0,0,1-5.71-8.56q-2-5.35-2-14.63,0-13.25,4.6-20.05T140.56,16.38ZM143.31,26q0-4.74-2.75-4.74-3,0-3,5.81V58.78q0,5.77,2.71,5.77,3,0,3-5.77Z"/><path class="cls-3" d="M178,16.38q7.18,0,12,6.44t4.81,19.12q0,13.67-4.89,20.68t-12.18,7A12.93,12.93,0,0,1,169,66.42a20.62,20.62,0,0,1-5.71-8.56q-2-5.35-2-14.63,0-13.25,4.6-20.05T178,16.38ZM180.78,26q0-4.74-2.75-4.74-3,0-3,5.81V58.78q0,5.77,2.71,5.77,3,0,3-5.77Z"/><path class="cls-3" d="M200.45,22.15H199a1.4,1.4,0,0,1-.82-.15c-.12-.1-.17-.38-.17-.84V18.4a1.86,1.86,0,0,1,.17-1q.17-.23,1-.34A10.58,10.58,0,0,0,204.69,14,10.3,10.3,0,0,0,208,8.36,2.53,2.53,0,0,1,208.49,7a1.9,1.9,0,0,1,1.17-.25h2.48q1,0,1,1.34v8.79h2.37q1.34,0,1.34,1.26v2.75q0,1.22-1.34,1.22h-2.37V61.72a3,3,0,0,0,1.8,2.9,2.21,2.21,0,0,1,1.15,1,6.24,6.24,0,0,1,.27,2.21c0,.66,0,1-.13,1.11a2,2,0,0,1-.94.11H203.2q-2.75-2.44-2.75-7.37Z"/><path class="cls-3" d="M234.06,42.24V57.86a8.48,8.48,0,0,0,1.2,4.85,3.6,3.6,0,0,0,3.07,1.76A5.41,5.41,0,0,0,243,62a12.1,12.1,0,0,0,1.85-6.74,5.49,5.49,0,0,1,.44-2.75q.4-.46,2.77-.46a5.07,5.07,0,0,1,2.62.42q.55.42.55,2.1A15.89,15.89,0,0,1,247.39,65a12.52,12.52,0,0,1-10.12,4.58q-7.22,0-12.26-6.55t-5-19.73q0-13.18,4.66-20.07t12.22-6.89q6.49,0,10.43,5.81t3.93,16.5v3.55Zm5.16-4.78V24.82q0-3.59-2.56-3.59t-2.6,3.59V37.46Z"/></g></g></svg>